<?xml version="1.0" encoding="iso-8859-1"?>
<!-- Generator: Adobe Illustrator 19.0.0, SVG Export Plug-In . SVG Version: 6.00 Build 0)  -->
<svg version="1.1" id="Capa_1" xmlns="http://www.w3.org/2000/svg" xmlns:xlink="http://www.w3.org/1999/xlink" x="0px" y="0px"
	 viewBox="0 0 480 480" style="enable-background:new 0 0 480 480;" xml:space="preserve">
<g>
	<g>
		<path d="M386.848,323.52l-70.016-14.048c-7.424-1.504-12.832-8.096-12.832-15.68V275.52c69.92-6.656,80-20.96,80-35.52
			c0-43.04-28.608-142.976-33.344-159.232c-0.576-25.12-5.184-39.264-16.672-51.616c-8.128-8.8-20.064-10.848-29.696-12.48
			c-3.776-0.672-8.992-1.536-10.912-2.592C276.32,4.832,259.456,0.384,239.328,0c-42.144,1.728-93.952,28.544-111.68,77.568
			C126.368,82.144,96,190.368,96,240c0,20.704,23.424,31.616,80,36.608v17.184c0,7.584-5.408,14.176-12.864,15.68l-69.92,14.016
			C48.48,332.288,16,371.872,16,417.6V448c0,17.632,14.368,32,32,32h384c17.632,0,32-14.368,32-32v-30.4
			C464,371.872,431.52,332.288,386.848,323.52z M432,448H48v-30.4c0-30.464,21.6-56.832,51.456-62.688l69.984-14.048
			c22.336-4.512,38.56-24.288,38.56-47.072v-32c0-8.448-6.56-15.424-14.976-15.968c-38.944-2.528-58.08-7.456-64.928-10.624
			c1.92-47.584,30.048-147.84,29.984-147.84c12.576-34.656,51.072-54.08,81.6-55.36c14.016,0.256,25.888,3.424,38.4,10.176
			c6.56,3.584,14.144,4.864,20.832,6.016c3.808,0.64,10.176,1.728,11.584,2.656c4.48,4.8,7.936,10.24,8.192,32.512
			c0,1.472,0.224,2.912,0.672,4.32c0.32,1.056,29.856,101.472,32.448,146.432c-7.232,2.944-26.272,7.904-64.96,10.688
			c-8.352,0.64-14.848,7.616-14.848,16v32.992c0,22.784,16.224,42.592,38.56,47.072l70.048,14.048
			C410.4,360.736,432,387.136,432,417.6V448z"/>
	</g>
</g>
<g>
</g>
<g>
</g>
<g>
</g>
<g>
</g>
<g>
</g>
<g>
</g>
<g>
</g>
<g>
</g>
<g>
</g>
<g>
</g>
<g>
</g>
<g>
</g>
<g>
</g>
<g>
</g>
<g>
</g>
</svg>
